<?xml version="1.0" encoding="UTF-8" standalone="no"?>
<svg
   xmlns:dc="http://purl.org/dc/elements/1.1/"
   xmlns:cc="http://creativecommons.org/ns#"
   xmlns:rdf="http://www.w3.org/1999/02/22-rdf-syntax-ns#"
   xmlns:svg="http://www.w3.org/2000/svg"
   xmlns="http://www.w3.org/2000/svg"
   xmlns:sodipodi="http://sodipodi.sourceforge.net/DTD/sodipodi-0.dtd"
   xmlns:inkscape="http://www.inkscape.org/namespaces/inkscape"
   inkscape:export-ydpi="571.53491"
   inkscape:export-xdpi="571.53491"
   inkscape:export-filename="/home/sam/Develop/SailfishOS/harbour-kasa/icons/512x512/harbour-kasa.png"
   inkscape:version="1.0.1 (3bc2e813f5, 2020-09-07)"
   sodipodi:docname="harbour-kasa.svg"
   id="svg116"
   xml:space="preserve"
   enable-background="new 0 0 86 86"
   viewBox="0 0 86 86"
   height="86px"
   width="86px"
   y="0px"
   x="0px"
   version="1.1"><metadata
   id="metadata122"><rdf:RDF><cc:Work
       rdf:about=""><dc:format>image/svg+xml</dc:format><dc:type
         rdf:resource="http://purl.org/dc/dcmitype/StillImage" /><dc:title /></cc:Work></rdf:RDF></metadata><defs
   id="defs120">
	
		<linearGradient
   id="SVGID_1_"
   gradientUnits="userSpaceOnUse"
   x1="-612"
   y1="-49.3"
   x2="-612"
   y2="-134.7"
   gradientTransform="translate(655,135)">
		<stop
   offset="0"
   style="stop-color:#00b297;stop-opacity:1"
   id="stop3" />
		<stop
   offset="1"
   style="stop-color:#00ccb4;stop-opacity:1"
   id="stop5" />
	</linearGradient>
	
	
	
	
	
	
<radialGradient
   id="SVGID_1_-3"
   cx="43.220501"
   cy="43.234402"
   r="42.798401"
   gradientTransform="matrix(-0.9977,0,0,0.9977,86.120603,-0.1349995)"
   gradientUnits="userSpaceOnUse"><stop
     offset="0"
     style="stop-color:#00b297;stop-opacity:1"
     id="stop3-6" /><stop
     offset="1"
     style="stop-color:#00ccb4;stop-opacity:1"
     id="stop5-7" /></radialGradient></defs><sodipodi:namedview
   inkscape:current-layer="svg116"
   inkscape:window-maximized="1"
   inkscape:window-y="0"
   inkscape:window-x="0"
   inkscape:cy="68.316661"
   inkscape:cx="-14.620358"
   inkscape:zoom="4.1569768"
   showgrid="false"
   id="namedview118"
   inkscape:window-height="1015"
   inkscape:window-width="1920"
   inkscape:pageshadow="2"
   inkscape:pageopacity="0"
   guidetolerance="10"
   gridtolerance="10"
   objecttolerance="10"
   borderopacity="1"
   bordercolor="#666666"
   pagecolor="#ffffff"
   inkscape:document-rotation="0" />
<path
   id="path838"
   style="fill:#ffffff;stroke:none;stroke-width:0.213333px;stroke-linecap:butt;stroke-linejoin:miter;stroke-opacity:1"
   d="M 43 10.957031 C 41.215894 10.957031 39.851563 12.408203 39.851562 12.408203 L 12.951172 39.365234 C 12.951172 39.365234 11.983601 40.243989 11.537109 41.304688 C 11.090625 42.365384 11 44.035156 11 44.035156 L 11 69.480469 C 11 69.480469 10.96842 71.768626 12.511719 73.335938 C 14.055022 74.903249 16.666016 75.042969 16.666016 75.042969 L 26.701172 75.042969 L 26.701172 49.982422 C 26.701172 49.982422 26.789842 48.31265 27.236328 47.251953 C 27.682819 46.191255 28.652344 45.310547 28.652344 45.310547 L 53.816406 20.09375 L 46.148438 12.408203 C 46.148437 12.408203 44.784104 10.957031 43 10.957031 z M 56.492188 22.773438 L 32.296875 47.019531 C 32.296875 47.019531 31.32735 47.898288 30.880859 48.958984 C 30.434375 50.019682 30.345703 51.689453 30.345703 51.689453 L 30.345703 75.042969 L 46 75.042969 L 46 52.699219 C 46 51.591219 46.892 50.699219 48 50.699219 L 58 50.699219 C 59.108 50.699219 60 51.591219 60 52.699219 L 60 75.042969 L 69.335938 75.042969 C 69.335938 75.042969 71.944973 74.90325 73.488281 73.335938 C 75.031541 71.768628 75 69.480469 75 69.480469 L 75 44.035156 C 75 44.035156 74.90937 42.365384 74.462891 41.304688 C 74.016401 40.243989 73.048828 39.365234 73.048828 39.365234 L 56.492188 22.773438 z " /><path
   fill="url(#SVGID_1_)"
   d="m 1.7224986,0.3000005 c 0,0 39.4940014,0 41.2770014,0 23.583,0 42.700003,19.1170005 42.700003,42.7000005 0,1.783 0,41.276999 0,41.276999 0,0.786 -0.637,1.423 -1.423,1.423 H 36.8325 1.7234986 C 0.93749859,85.7 0.30049859,85.063 0.30049859,84.277 V 49.167999 1.7230005 c -0.001,-0.786 0.636,-1.423 1.42200001,-1.423 z"
   id="path8-5"
   style="fill:url(#SVGID_1_-3)" /><path
   id="path845"
   style="fill:#ffffff;stroke:none;stroke-width:0.213333px;stroke-linecap:butt;stroke-linejoin:miter;stroke-opacity:1"
   d="M 43 10.957031 C 41.215894 10.957031 39.851564 12.408203 39.851562 12.408203 L 28 24.285156 L 28 18.568359 C 28 17.145303 27.088588 16 25.957031 16 L 20.042969 16 C 18.911412 16 18 17.145303 18 18.568359 L 18 34.306641 L 12.951172 39.365234 C 12.951172 39.365234 11.983601 40.243989 11.537109 41.304688 C 11.090625 42.365384 11 44.035156 11 44.035156 L 11 69.480469 C 11 69.480469 10.96842 71.768625 12.511719 73.335938 C 14.055022 74.903249 16.666016 75.042969 16.666016 75.042969 L 26.701172 75.042969 L 26.701172 49.982422 C 26.701172 49.982422 26.789842 48.31265 27.236328 47.251953 C 27.682819 46.191255 28.652344 45.310547 28.652344 45.310547 L 53.816406 20.09375 L 46.148438 12.408203 C 46.148437 12.408203 44.784104 10.957031 43 10.957031 z M 56.492188 22.773438 L 32.296875 47.019531 C 32.296875 47.019531 31.32735 47.898288 30.880859 48.958984 C 30.434375 50.019682 30.345703 51.689453 30.345703 51.689453 L 30.345703 75.042969 L 44 75.042969 L 44 54 C 44 53.240464 44.094998 52.54929 44.355469 51.869141 C 44.485704 51.529066 44.650031 51.182694 44.986328 50.8125 C 45.322625 50.442306 45.958816 50 46.765625 50 L 59.234375 50 C 60.041184 50 60.677375 50.442306 61.013672 50.8125 C 61.349969 51.182694 61.514296 51.529066 61.644531 51.869141 C 61.905002 52.54929 62 53.240464 62 54 L 62 75.042969 L 69.335938 75.042969 C 69.335938 75.042969 71.944973 74.90325 73.488281 73.335938 C 75.031541 71.768628 75 69.480469 75 69.480469 L 75 44.035156 C 75 44.035156 74.90937 42.365384 74.462891 41.304688 C 74.016401 40.243989 73.048828 39.365234 73.048828 39.365234 L 56.492188 22.773438 z M 48 54 L 48 75.042969 L 58 75.042969 L 58 54 L 48 54 z " /><g
   display="none"
   id="Layer_2">
</g>

</svg>
