<?xml version="1.0" encoding="UTF-8" standalone="no"?>
<svg
   xmlns:dc="http://purl.org/dc/elements/1.1/"
   xmlns:cc="http://creativecommons.org/ns#"
   xmlns:rdf="http://www.w3.org/1999/02/22-rdf-syntax-ns#"
   xmlns:svg="http://www.w3.org/2000/svg"
   xmlns="http://www.w3.org/2000/svg"
   xmlns:sodipodi="http://sodipodi.sourceforge.net/DTD/sodipodi-0.dtd"
   xmlns:inkscape="http://www.inkscape.org/namespaces/inkscape"
   id="svg23"
   width="86px"
   height="86px"
   enable-background="new 0 0 86 86"
   version="1.1"
   viewBox="0 0 86 86"
   xml:space="preserve"
   sodipodi:docname="light_bulb.svg"
   inkscape:version="1.0.1 (3bc2e813f5, 2020-09-07)"><defs
   id="defs28" /><sodipodi:namedview
   pagecolor="#ffffff"
   bordercolor="#666666"
   borderopacity="1"
   objecttolerance="10"
   gridtolerance="10"
   guidetolerance="10"
   inkscape:pageopacity="0"
   inkscape:pageshadow="2"
   inkscape:window-width="1920"
   inkscape:window-height="1015"
   id="namedview26"
   showgrid="true"
   inkscape:zoom="5.8788529"
   inkscape:cx="29.728094"
   inkscape:cy="51.133865"
   inkscape:window-x="0"
   inkscape:window-y="0"
   inkscape:window-maximized="1"
   inkscape:current-layer="svg23"><inkscape:grid
     type="xygrid"
     id="grid857" /></sodipodi:namedview><metadata
   id="metadata29"><rdf:RDF><cc:Work
       rdf:about=""><dc:format>image/svg+xml</dc:format><dc:type
         rdf:resource="http://purl.org/dc/dcmitype/StillImage" /><dc:title></dc:title></cc:Work></rdf:RDF></metadata>


<g
   id="layer2"
   display="none"><rect
     id="rect1124"
     width="86"
     height="86" /></g><path
   id="path875"
   style="color:#000000;font-style:normal;font-variant:normal;font-weight:normal;font-stretch:normal;font-size:medium;line-height:normal;font-family:sans-serif;font-variant-ligatures:normal;font-variant-position:normal;font-variant-caps:normal;font-variant-numeric:normal;font-variant-alternates:normal;font-variant-east-asian:normal;font-feature-settings:normal;font-variation-settings:normal;text-indent:0;text-align:start;text-decoration:none;text-decoration-line:none;text-decoration-style:solid;text-decoration-color:#000000;letter-spacing:normal;word-spacing:normal;text-transform:none;writing-mode:lr-tb;direction:ltr;text-orientation:mixed;dominant-baseline:auto;baseline-shift:baseline;text-anchor:start;white-space:normal;shape-padding:0;shape-margin:0;inline-size:0;clip-rule:nonzero;display:inline;overflow:visible;visibility:visible;isolation:auto;mix-blend-mode:normal;color-interpolation:sRGB;color-interpolation-filters:linearRGB;solid-color:#000000;solid-opacity:1;vector-effect:none;fill:#ffffff;fill-opacity:1;fill-rule:nonzero;stroke:none;stroke-width:2;stroke-linecap:butt;stroke-linejoin:bevel;stroke-miterlimit:4;stroke-dasharray:none;stroke-dashoffset:0;stroke-opacity:1;color-rendering:auto;image-rendering:auto;shape-rendering:auto;text-rendering:auto;enable-background:accumulate;stop-color:#000000;stop-opacity:1;opacity:1"
   d="M 42.5 3 C 27.600156 3 15.5 15.100156 15.5 30 C 15.5 40.389732 21.386341 49.412009 30 53.925781 L 30 53 L 32.681641 53 C 23.751371 49.187992 17.5 40.332223 17.5 30 C 17.5 16.181037 28.681037 5 42.5 5 C 56.318963 5 67.5 16.181037 67.5 30 C 67.5 40.332223 61.248629 49.187992 52.318359 53 L 55 53 L 55 53.925781 C 63.613659 49.412009 69.5 40.389732 69.5 30 C 69.5 15.100156 57.399844 3 42.5 3 z " /><path
   id="path865"
   style="color:#000000;font-style:normal;font-variant:normal;font-weight:normal;font-stretch:normal;font-size:medium;line-height:normal;font-family:sans-serif;font-variant-ligatures:normal;font-variant-position:normal;font-variant-caps:normal;font-variant-numeric:normal;font-variant-alternates:normal;font-variant-east-asian:normal;font-feature-settings:normal;font-variation-settings:normal;text-indent:0;text-align:start;text-decoration:none;text-decoration-line:none;text-decoration-style:solid;text-decoration-color:#000000;letter-spacing:normal;word-spacing:normal;text-transform:none;writing-mode:lr-tb;direction:ltr;text-orientation:mixed;dominant-baseline:auto;baseline-shift:baseline;text-anchor:start;white-space:normal;shape-padding:0;shape-margin:0;inline-size:0;clip-rule:nonzero;display:inline;overflow:visible;visibility:visible;isolation:auto;mix-blend-mode:normal;color-interpolation:sRGB;color-interpolation-filters:linearRGB;solid-color:#000000;solid-opacity:1;vector-effect:none;fill:#ffffff;fill-opacity:1;fill-rule:nonzero;stroke:none;stroke-width:2;stroke-linecap:round;stroke-linejoin:round;stroke-miterlimit:4;stroke-dasharray:none;stroke-dashoffset:0;stroke-opacity:1;color-rendering:auto;image-rendering:auto;shape-rendering:auto;text-rendering:auto;enable-background:accumulate;stop-color:#000000;stop-opacity:1;opacity:1"
   d="M 30 52 A 1 1 0 0 0 29.916016 52.003906 A 1 1 0 0 0 29.75 52.03125 A 1 1 0 0 0 29.515625 52.125 A 1 1 0 0 0 29.376953 52.21875 A 1 1 0 0 0 29.154297 52.466797 A 1 1 0 0 0 29.076172 52.617188 A 1 1 0 0 0 29.001953 52.943359 A 1 1 0 0 0 29 53 L 29 60 A 1.0001 1.0001 0 0 0 29.628906 60.927734 L 32.308594 62 L 29.628906 63.072266 A 1.0001 1.0001 0 0 0 29.628906 64.927734 L 32.308594 66 L 29.628906 67.072266 A 1.0001 1.0001 0 0 0 29.628906 68.927734 L 32.308594 70 L 29.628906 71.072266 A 1.0001 1.0001 0 0 0 29.628906 72.927734 L 34 74.677734 L 34 80 A 1.0001 1.0001 0 0 0 35 81 L 36.75 81 C 37.02166 81.148846 37.6662 81.495427 38.613281 81.914062 C 39.79304 82.435548 41.182865 83 42.5 83 C 43.817135 83 45.20696 82.435548 46.386719 81.914062 C 47.3338 81.495427 47.97834 81.148846 48.25 81 L 50 81 A 1.0001 1.0001 0 0 0 51 80 L 51 76.677734 L 55.371094 74.927734 A 1.0001 1.0001 0 0 0 55.371094 73.072266 L 52.691406 72 L 55.371094 70.927734 A 1.0001 1.0001 0 0 0 55.371094 69.072266 L 52.691406 68 L 55.371094 66.927734 A 1.0001 1.0001 0 0 0 55.371094 65.072266 L 52.691406 64 L 55.371094 62.927734 A 1.0001 1.0001 0 0 0 55.371094 61.072266 L 52.691406 60 L 55.371094 58.927734 A 1.0001 1.0001 0 0 0 56 58 L 56 53 A 1.0001 1.0001 0 0 0 55 52 L 30 52 z M 31 54 L 54 54 L 54 57.322266 L 49.628906 59.072266 A 1.0001 1.0001 0 0 0 49.628906 60.927734 L 52.308594 62 L 49.628906 63.072266 A 1.0001 1.0001 0 0 0 49.628906 64.927734 L 52.308594 66 L 49.628906 67.072266 A 1.0001 1.0001 0 0 0 49.628906 68.927734 L 52.308594 70 L 49.628906 71.072266 A 1.0001 1.0001 0 0 0 49.628906 72.927734 L 52.308594 74 L 49.628906 75.072266 A 1.0001 1.0001 0 0 0 49 76 L 49 79 L 36 79 L 36 74 A 1.0001 1.0001 0 0 0 35.371094 73.072266 L 32.691406 72 L 35.371094 70.927734 A 1.0001 1.0001 0 0 0 35.371094 69.072266 L 32.691406 68 L 35.371094 66.927734 A 1.0001 1.0001 0 0 0 35.371094 65.072266 L 32.691406 64 L 35.371094 62.927734 A 1.0001 1.0001 0 0 0 35.371094 61.072266 L 31 59.322266 L 31 54 z " /></svg>
