<?xml version="1.0" encoding="UTF-8" standalone="no"?>
<svg
   xmlns:dc="http://purl.org/dc/elements/1.1/"
   xmlns:cc="http://creativecommons.org/ns#"
   xmlns:rdf="http://www.w3.org/1999/02/22-rdf-syntax-ns#"
   xmlns:svg="http://www.w3.org/2000/svg"
   xmlns="http://www.w3.org/2000/svg"
   xmlns:sodipodi="http://sodipodi.sourceforge.net/DTD/sodipodi-0.dtd"
   xmlns:inkscape="http://www.inkscape.org/namespaces/inkscape"
   inkscape:version="1.0 (4035a4fb49, 2020-05-01)"
   sodipodi:docname="powerplug.svg"
   id="svg23"
   xml:space="preserve"
   enable-background="new 0 0 86 86"
   viewBox="0 0 86 86"
   height="86px"
   width="86px"
   y="0px"
   x="0px"
   version="1.1"><metadata
   id="metadata29"><rdf:RDF><cc:Work
       rdf:about=""><dc:format>image/svg+xml</dc:format><dc:type
         rdf:resource="http://purl.org/dc/dcmitype/StillImage" /><dc:title></dc:title></cc:Work></rdf:RDF></metadata><defs
   id="defs27" /><sodipodi:namedview
   inkscape:pagecheckerboard="true"
   inkscape:current-layer="svg23"
   inkscape:window-maximized="1"
   inkscape:window-y="0"
   inkscape:window-x="0"
   inkscape:cy="63.970008"
   inkscape:cx="93.484638"
   inkscape:zoom="4.1569767"
   showgrid="false"
   id="namedview25"
   inkscape:window-height="1015"
   inkscape:window-width="1920"
   inkscape:pageshadow="2"
   inkscape:pageopacity="0"
   guidetolerance="10"
   gridtolerance="10"
   objecttolerance="10"
   borderopacity="1"
   bordercolor="#666666"
   pagecolor="#ffffff" />
<g
   display="none"
   id="Layer_2">
</g>

<g
   style="display:none"
   inkscape:label="Background"
   id="layer2"
   inkscape:groupmode="layer"><rect
     y="0"
     x="0"
     height="86"
     width="86"
     id="rect1124"
     style="opacity:1;fill:#000000;stroke:none;stroke-width:1;stroke-linecap:square;stroke-linejoin:round;stroke-miterlimit:4;stroke-dasharray:none" /></g><ellipse
   ry="38"
   rx="29.000002"
   cy="43"
   cx="43"
   id="path1038"
   style="opacity:0.9;fill:none;stroke:#ffffff;stroke-width:2;stroke-linecap:square;stroke-miterlimit:4;stroke-dasharray:none" /><g
   inkscape:label="Foreground"
   id="layer1"
   inkscape:groupmode="layer" /><path
   d="M 40 40.283203 A 15.999999 15.999999 0 0 0 27 56 A 15.999999 15.999999 0 0 0 40 71.716797 L 40 68 L 46 68 L 46 71.716797 A 15.999999 15.999999 0 0 0 59 56 A 15.999999 15.999999 0 0 0 46 40.283203 L 46 44 L 40 44 L 40 40.283203 z "
   style="opacity:1;fill:none;stroke:#ffffff;stroke-width:2;stroke-linecap:square;stroke-miterlimit:4;stroke-dasharray:none;stroke-linejoin:round"
   id="path1043" /><circle
   r="3"
   cy="56"
   cx="35"
   id="path1054"
   style="opacity:1;fill:#ffffff;stroke:none;stroke-width:2;stroke-linecap:square;stroke-linejoin:round;stroke-miterlimit:4;stroke-dasharray:none" /><circle
   style="opacity:1;fill:#ffffff;stroke:none;stroke-width:2;stroke-linecap:square;stroke-linejoin:round;stroke-miterlimit:4;stroke-dasharray:none"
   id="circle1056"
   cx="51"
   cy="56"
   r="3" /><circle
   r="6.5"
   cy="19"
   cx="43"
   id="path1058"
   style="opacity:1;fill:none;stroke:#ffffff;stroke-width:1;stroke-linecap:square;stroke-linejoin:round;stroke-miterlimit:4;stroke-dasharray:none" /><g
   style="fill:#ffffff;stroke:none;stroke-width:122.513"
   transform="matrix(0.00816243,0,0,0.00816243,38.918785,14.918785)"
   id="g62"><g
     style="fill:#ffffff;stroke:none;stroke-width:10006.2"
     id="g30"><g
       style="fill:#ffffff;stroke:none;stroke-width:122.513"
       id="g28"><g
         style="fill:#ffffff;stroke:none;stroke-width:122.513"
         id="g8"><g
           style="fill:#ffffff;stroke:none;stroke-width:122.513"
           id="g6"><path
             style="fill:#ffffff;stroke:none;stroke-width:122.513"
             d="m 500,908.6 c -64.1,0 -116.3,-52.2 -116.3,-116.4 0,-64.2 52.2,-116.3 116.3,-116.3 64.2,0 116.4,52.2 116.4,116.3 -0.1,64.3 -52.3,116.4 -116.4,116.4 z"
             id="path4" /></g></g><g
         style="fill:#ffffff;stroke:none;stroke-width:122.513"
         id="g14"><g
           style="fill:#ffffff;stroke:none;stroke-width:122.513"
           id="g12"><path
             style="fill:#ffffff;stroke:none;stroke-width:122.513"
             d="M 910.6,420.3 C 889.4,420.3 869.4,412 854.4,397 759.8,302.4 633.9,250.2 500,250.2 366.1,250.2 240.2,302.3 145.5,397 115.5,427 63.2,427 33.2,397.1 2.2,366 2.2,315.7 33.2,284.7 157.9,160 323.7,91.4 500,91.4 c 176.4,0 342.1,68.7 466.8,193.4 31,30.9 31,81.3 0,112.3 -15,15 -35,23.2 -56.2,23.2 z"
             id="path10" /></g></g><g
         style="fill:#ffffff;stroke:none;stroke-width:122.513"
         id="g20"><g
           style="fill:#ffffff;stroke:none;stroke-width:122.513"
           id="g18"><path
             style="fill:#ffffff;stroke:none;stroke-width:122.513"
             d="m 773.7,557.2 c -21.2,0 -41.1,-8.3 -56.1,-23.3 -58.1,-58.1 -135.4,-90.1 -217.6,-90.1 -82.3,0 -159.5,32 -217.6,90.2 -30.2,30 -82.3,29.9 -112.3,0 -31,-31 -31,-81.4 -0.1,-112.4 88.2,-88.1 205.3,-136.7 329.9,-136.7 124.6,0 241.8,48.5 329.9,136.7 15,15 23.3,34.9 23.3,56.2 0,21.2 -8.3,41.2 -23.3,56.2 -15,15 -34.9,23.2 -56.1,23.2 z"
             id="path16" /></g></g><g
         style="fill:#ffffff;stroke:none;stroke-width:122.513"
         id="g26"><g
           style="fill:#ffffff;stroke:none;stroke-width:122.513"
           id="g24"><path
             style="fill:#ffffff;stroke:none;stroke-width:122.513"
             d="m 363.1,694 c -21.2,0 -41.2,-8.3 -56.2,-23.3 -15,-15 -23.2,-34.9 -23.2,-56.1 0,-21.2 8.3,-41.2 23.3,-56.2 51.5,-51.5 120.1,-79.8 193,-79.8 73,0 141.6,28.3 193.1,79.8 15,15 23.3,35 23.3,56.2 0,21.2 -8.3,41.2 -23.3,56.2 -30.1,30.1 -82.5,30 -112.4,0 -21.5,-21.5 -50.2,-33.3 -80.7,-33.3 -30.5,0 -59.2,11.9 -80.7,33.4 -15,14.9 -35,23.1 -56.2,23.1 z"
             id="path22" /></g></g></g></g><g
     style="fill:#ffffff;stroke:none;stroke-width:10006.2"
     id="g32" /><g
     style="fill:#ffffff;stroke:none;stroke-width:10006.2"
     id="g34" /><g
     style="fill:#ffffff;stroke:none;stroke-width:10006.2"
     id="g36" /><g
     style="fill:#ffffff;stroke:none;stroke-width:10006.2"
     id="g38" /><g
     style="fill:#ffffff;stroke:none;stroke-width:10006.2"
     id="g40" /><g
     style="fill:#ffffff;stroke:none;stroke-width:10006.2"
     id="g42" /><g
     style="fill:#ffffff;stroke:none;stroke-width:10006.2"
     id="g44" /><g
     style="fill:#ffffff;stroke:none;stroke-width:10006.2"
     id="g46" /><g
     style="fill:#ffffff;stroke:none;stroke-width:10006.2"
     id="g48" /><g
     style="fill:#ffffff;stroke:none;stroke-width:10006.2"
     id="g50" /><g
     style="fill:#ffffff;stroke:none;stroke-width:10006.2"
     id="g52" /><g
     style="fill:#ffffff;stroke:none;stroke-width:10006.2"
     id="g54" /><g
     style="fill:#ffffff;stroke:none;stroke-width:10006.2"
     id="g56" /><g
     style="fill:#ffffff;stroke:none;stroke-width:10006.2"
     id="g58" /><g
     style="fill:#ffffff;stroke:none;stroke-width:10006.2"
     id="g60" /></g></svg>
