<?xml version="1.0" encoding="UTF-8"?>
<svg id="svg23" width="86px" height="86px" enable-background="new 0 0 86 86" version="1.1" viewBox="0 0 86 86" xml:space="preserve" xmlns="http://www.w3.org/2000/svg" xmlns:cc="http://creativecommons.org/ns#" xmlns:dc="http://purl.org/dc/elements/1.1/" xmlns:rdf="http://www.w3.org/1999/02/22-rdf-syntax-ns#"><metadata id="metadata29"><rdf:RDF><cc:Work rdf:about=""><dc:format>image/svg+xml</dc:format><dc:type rdf:resource="http://purl.org/dc/dcmitype/StillImage"/><dc:title/></cc:Work></rdf:RDF></metadata>


<g id="layer2" display="none"><rect id="rect1124" width="86" height="86"/></g><ellipse id="path1038" cx="43" cy="43" rx="29" ry="38" fill="none" opacity=".9" stroke="#fff" stroke-linecap="square" stroke-width="2"/><path id="path1043" d="m40 40.283a16 16 0 0 0-13 15.717 16 16 0 0 0 13 15.717v-3.7168h6v3.7168a16 16 0 0 0 13-15.717 16 16 0 0 0-13-15.717v3.7168h-6v-3.7168z" fill="none" stroke="#fff" stroke-linecap="square" stroke-linejoin="round" stroke-width="2"/><circle id="path1054" cx="35" cy="56" r="3" fill="#fff"/><circle id="circle1056" cx="51" cy="56" r="3" fill="#fff"/><circle id="path1058" cx="43" cy="19" r="6.5" fill="none" stroke="#fff" stroke-linecap="square" stroke-linejoin="round"/><g id="g62" transform="matrix(.0081624 0 0 .0081624 38.919 14.919)" fill="#fff"><g id="g30" fill="#fff"><g id="g28" fill="#fff"><g id="g8"><g id="g6" fill="#fff"><path id="path4" d="m500 908.6c-64.1 0-116.3-52.2-116.3-116.4s52.2-116.3 116.3-116.3c64.2 0 116.4 52.2 116.4 116.3-0.1 64.3-52.3 116.4-116.4 116.4z" fill="#fff"/></g></g><g id="g14"><g id="g12" fill="#fff"><path id="path10" d="m910.6 420.3c-21.2 0-41.2-8.3-56.2-23.3-94.6-94.6-220.5-146.8-354.4-146.8s-259.8 52.1-354.5 146.8c-30 30-82.3 30-112.3 0.1-31-31.1-31-81.4 0-112.4 124.7-124.7 290.5-193.3 466.8-193.3 176.4 0 342.1 68.7 466.8 193.4 31 30.9 31 81.3 0 112.3-15 15-35 23.2-56.2 23.2z" fill="#fff"/></g></g><g id="g20"><g id="g18" fill="#fff"><path id="path16" d="m773.7 557.2c-21.2 0-41.1-8.3-56.1-23.3-58.1-58.1-135.4-90.1-217.6-90.1-82.3 0-159.5 32-217.6 90.2-30.2 30-82.3 29.9-112.3 0-31-31-31-81.4-0.1-112.4 88.2-88.1 205.3-136.7 329.9-136.7s241.8 48.5 329.9 136.7c15 15 23.3 34.9 23.3 56.2 0 21.2-8.3 41.2-23.3 56.2s-34.9 23.2-56.1 23.2z" fill="#fff"/></g></g><g id="g26"><g id="g24" fill="#fff"><path id="path22" d="m363.1 694c-21.2 0-41.2-8.3-56.2-23.3s-23.2-34.9-23.2-56.1 8.3-41.2 23.3-56.2c51.5-51.5 120.1-79.8 193-79.8 73 0 141.6 28.3 193.1 79.8 15 15 23.3 35 23.3 56.2s-8.3 41.2-23.3 56.2c-30.1 30.1-82.5 30-112.4 0-21.5-21.5-50.2-33.3-80.7-33.3s-59.2 11.9-80.7 33.4c-15 14.9-35 23.1-56.2 23.1z" fill="#fff"/></g></g></g></g></g></svg>
