<?xml version="1.0" encoding="UTF-8"?>
<svg id="svg116" width="86px" height="86px" enable-background="new 0 0 86 86" version="1.1" viewBox="0 0 86 86" xml:space="preserve" xmlns="http://www.w3.org/2000/svg" xmlns:cc="http://creativecommons.org/ns#" xmlns:dc="http://purl.org/dc/elements/1.1/" xmlns:rdf="http://www.w3.org/1999/02/22-rdf-syntax-ns#"><metadata id="metadata122"><rdf:RDF><cc:Work rdf:about=""><dc:format>image/svg+xml</dc:format><dc:type rdf:resource="http://purl.org/dc/dcmitype/StillImage"/><dc:title/></cc:Work></rdf:RDF></metadata><defs id="defs120">
	
		<linearGradient id="SVGID_1_" x1="-612" x2="-612" y1="-49.3" y2="-134.7" gradientTransform="translate(655,135)" gradientUnits="userSpaceOnUse">
		<stop id="stop3" stop-color="#00b297" offset="0"/>
		<stop id="stop5" stop-color="#00ccb4" offset="1"/>
	</linearGradient>
	
	
	
	
	
	
</defs>

<path id="path8" d="m43 0.3c-23.581 0-42.7 19.117-42.7 42.7v39.285c0 1.879 1.538 3.416 3.416 3.416h78.568c1.879 0 3.416-1.537 3.416-3.416v-39.285c0-23.583-19.117-42.7-42.7-42.7z" fill="url(#SVGID_1_)"/>
<path id="path1113" d="m43 10.957c-1.7841 0-3.1479 1.4512-3.1479 1.4512l-7.6692 7.6854 25.165 25.218s0.96851 0.87972 1.415 1.9404c0.44649 1.0607 0.53667 2.7304 0.53667 2.7304v25.061h10.035s2.61-0.13935 4.1533-1.7067c1.5433-1.5673 1.5117-3.8554 1.5117-3.8554v-25.445s-0.09018-1.6697-0.53666-2.7304c-0.44649-1.0607-1.415-1.9404-1.415-1.9404l-26.9-26.957s-1.3638-1.4512-3.1479-1.4512zm-13.491 11.816-10.683 10.706 19.847 19.889s0.9685 0.87972 1.415 1.9404c0.44649 1.0607 0.53667 2.7304 0.53667 2.7304v17.004h15.03v-23.353s-0.09018-1.6697-0.53666-2.7304c-0.44649-1.0607-1.415-1.9404-1.415-1.9404zm-13.658 13.687-2.8987 2.9046s-0.96851 0.87972-1.415 1.9404c-0.44648 1.0607-0.53666 2.7304-0.53666 2.7304v25.445s-0.0316 2.2881 1.5117 3.8554c1.5433 1.5673 4.1529 1.7067 4.1529 1.7067h19.691v-15.319s-0.09018-1.6697-0.53667-2.7304c-0.44649-1.0607-1.415-1.9404-1.415-1.9404z" fill="#fff"/></svg>
