<?xml version="1.0" encoding="UTF-8"?>
<svg id="svg116" width="86px" height="86px" enable-background="new 0 0 86 86" version="1.1" viewBox="0 0 86 86" xml:space="preserve" xmlns="http://www.w3.org/2000/svg" xmlns:cc="http://creativecommons.org/ns#" xmlns:dc="http://purl.org/dc/elements/1.1/" xmlns:rdf="http://www.w3.org/1999/02/22-rdf-syntax-ns#"><metadata id="metadata122"><rdf:RDF><cc:Work rdf:about=""><dc:format>image/svg+xml</dc:format><dc:type rdf:resource="http://purl.org/dc/dcmitype/StillImage"/><dc:title/></cc:Work></rdf:RDF></metadata><defs id="defs120">
	
		
	
	
	
	
	
	
<radialGradient id="SVGID_1_-3" cx="43.221" cy="43.234" r="42.798" gradientTransform="matrix(-.9977 0 0 .9977 86.121 -.135)" gradientUnits="userSpaceOnUse"><stop id="stop3-6" stop-color="#00b297" offset="0"/><stop id="stop5-7" stop-color="#00ccb4" offset="1"/></radialGradient></defs>
<path id="path838" d="m43 10.957c-1.7841 0-3.1484 1.4512-3.1484 1.4512l-26.9 26.957s-0.96757 0.87876-1.4141 1.9395c-0.44648 1.0607-0.53711 2.7305-0.53711 2.7305v25.445s-0.03158 2.2882 1.5117 3.8555c1.5433 1.5673 4.1543 1.707 4.1543 1.707h10.035v-25.061s0.08867-1.6698 0.53516-2.7305c0.44649-1.0607 1.416-1.9414 1.416-1.9414l25.164-25.217-7.668-7.6855c-1e-6 0-1.3643-1.4512-3.1484-1.4512zm13.492 11.816-24.195 24.246s-0.96952 0.87876-1.416 1.9395c-0.44648 1.0607-0.53516 2.7305-0.53516 2.7305v23.354h15.654v-22.344c0-1.108 0.892-2 2-2h10c1.108 0 2 0.892 2 2v22.344h9.3359s2.609-0.13972 4.1523-1.707c1.5433-1.5673 1.5117-3.8555 1.5117-3.8555v-25.445s-0.09063-1.6698-0.53711-2.7305c-0.44649-1.0607-1.4141-1.9395-1.4141-1.9395l-16.557-16.592z" fill="#fff"/><path id="path8-5" d="m1.7225 0.3h41.277c23.583 0 42.7 19.117 42.7 42.7v41.277c0 0.786-0.637 1.423-1.423 1.423h-82.553c-0.786 0-1.423-0.637-1.423-1.423v-82.554c-1e-3 -0.786 0.636-1.423 1.422-1.423z" fill="url(#SVGID_1_-3)"/><path id="path845" d="m43 10.957c-1.7841 0-3.1484 1.4512-3.1484 1.4512l-11.852 11.877v-5.7168c0-1.4231-0.91141-2.5684-2.043-2.5684h-5.9141c-1.1316 0-2.043 1.1453-2.043 2.5684v15.738l-5.0488 5.0586s-0.96757 0.87876-1.4141 1.9395c-0.44648 1.0607-0.53711 2.7305-0.53711 2.7305v25.445s-0.03158 2.2882 1.5117 3.8555c1.5433 1.5673 4.1543 1.707 4.1543 1.707h10.035v-25.061s0.08867-1.6698 0.53516-2.7305c0.44649-1.0607 1.416-1.9414 1.416-1.9414l25.164-25.217-7.668-7.6855c-1e-6 0-1.3643-1.4512-3.1484-1.4512zm13.492 11.816-24.195 24.246s-0.96952 0.87876-1.416 1.9395c-0.44648 1.0607-0.53516 2.7305-0.53516 2.7305v23.354h13.654v-21.043c0-0.75954 0.094998-1.4507 0.35547-2.1309 0.13024-0.34008 0.29456-0.68645 0.63086-1.0566s0.97249-0.8125 1.7793-0.8125h12.469c0.80681 0 1.443 0.44231 1.7793 0.8125s0.50062 0.71657 0.63086 1.0566c0.26047 0.68015 0.35547 1.3713 0.35547 2.1309v21.043h7.3359s2.609-0.13972 4.1523-1.707c1.5433-1.5673 1.5117-3.8555 1.5117-3.8555v-25.445s-0.09063-1.6698-0.53711-2.7305c-0.44649-1.0607-1.4141-1.9395-1.4141-1.9395l-16.557-16.592zm-8.4922 31.227v21.043h10v-21.043h-10z" fill="#fff"/>

</svg>
